PathFileType	4	(X/Y/Z)	c:/Users/goper/Files/vsCode/490R/osim_files/C06/C06_SSWS_01.trc
DataRate	CameraRate	NumFrames	NumMarkers	Units                	OrigDataRate	OrigDataStartFrame	OrigNumFrames
250.00	250.00	8	36	mm	250.0	1899	3038
                Frame#	Time	LPSIS			LASIS			LTH1			LTH2			LTH3			LTH4			LLFE			LMFE			LSH1			LSH2			LSH3			LSH4			LLMAL			LMMAL			LCAL			LMTP5			LTOE			LMTP1			RPSIS			RASIS			RTH1			RTH2			RTH3			RTH4			RLFE			RMFE			RSH1			RSH2			RSH3			RSH4			RLMAL			RMMAL			RCAL			RMTP1			RTOE			RMTP5		
		X1	Y1	Z1	X2	Y2	Z2	X3	Y3	Z3	X4	Y4	Z4	X5	Y5	Z5	X6	Y6	Z6	X7	Y7	Z7	X8	Y8	Z8	X9	Y9	Z9	X10	Y10	Z10	X11	Y11	Z11	X12	Y12	Z12	X13	Y13	Z13	X14	Y14	Z14	X15	Y15	Z15	X16	Y16	Z16	X17	Y17	Z17	X18	Y18	Z18	X19	Y19	Z19	X20	Y20	Z20	X21	Y21	Z21	X22	Y22	Z22	X23	Y23	Z23	X24	Y24	Z24	X25	Y25	Z25	X26	Y26	Z26	X27	Y27	Z27	X28	Y28	Z28	X29	Y29	Z29	X30	Y30	Z30	X31	Y31	Z31	X32	Y32	Z32	X33	Y33	Z33	X34	Y34	Z34	X35	Y35	Z35	X36	Y36	Z36

1899	7.59200	-1007.67023	959.93353	162.49191	-1190.90234	946.57343	240.27071	-1247.96924	773.23126	294.03030	-1272.78149	716.57788	295.92584	-1183.72815	739.06500	316.88599	-1217.38147	685.89520	315.37137	-1356.91150	481.04626	257.35272	-1350.93030	459.97955	140.00389	-1347.70190	358.52356	276.60168	-1371.88965	323.58026	272.70587	-1403.77051	390.44177	271.85651	-1420.47998	349.53793	268.66574	-1501.80225	114.03622	225.91267	-1492.51624	138.81056	149.54221	-1458.46021	60.22291	179.71616	-1629.44250	116.86779	245.84457	-1656.22668	165.06216	182.50502	-1640.99988	137.52019	134.66257	-999.24457	967.48499	96.43386	-1175.13257	942.00928	0.30937	-1041.17651	766.18530	-72.31018	-1035.30493	703.38055	-64.75086	-1115.64929	752.33582	-63.12189	-1098.79810	691.82538	-57.88945	-951.64984	452.01111	-5.49052	-979.54620	459.01593	97.07300	-870.97778	400.74158	-17.85146	-855.22827	355.15497	-16.37920	-925.48590	372.44177	-13.22981	-902.76270	331.72729	-11.83521	-785.35809	113.67645	38.57530	-807.40424	134.13213	114.15086	-702.64124	93.16115	84.32456	-909.03369	35.24719	119.47050	-932.67236	50.71613	72.88210	-882.43933	34.32486	6.87310
1900	7.59600	-1013.60767	959.00671	162.70956	-1197.00940	945.81952	240.22374	-1254.11169	772.62207	294.29694	-1279.17444	716.02155	296.09241	-1189.98938	738.29193	316.81659	-1223.60071	685.23071	315.16324	-1363.29932	480.36597	257.19998	-1357.05725	459.55353	139.53476	-1353.89233	357.84518	276.60754	-1378.03040	322.73584	272.48959	-1410.05469	389.53360	271.51105	-1426.67505	348.60626	268.40347	-1507.88867	112.16851	224.82489	-1497.32031	137.52591	149.21686	-1463.30981	58.97104	179.49326	-1634.57507	115.09055	245.16617	-1661.20410	163.36494	181.97453	-1645.79456	136.15793	134.05222	-1005.15509	966.51495	96.71420	-1180.88867	940.84906	0.25567	-1046.34607	765.32922	-71.93293	-1040.30322	702.57086	-64.39205	-1120.87244	751.28314	-63.01881	-1103.79834	690.78351	-57.77861	-955.60565	451.64688	-5.36151	-984.01013	458.39197	97.17996	-874.63409	401.09677	-17.71692	-858.48395	355.61078	-16.27328	-928.72650	372.28668	-13.08951	-905.60278	331.81461	-11.75955	-786.25464	114.74229	38.41628	-808.54303	135.03700	114.13837	-703.24768	94.91000	84.26842	-909.17236	35.20778	119.57335	-932.98755	50.42550	72.79074	-882.62067	34.32894	6.81248
1901	7.60000	-1019.54346	958.16156	162.98286	-1203.02209	944.98322	240.23528	-1260.56470	772.10840	294.60632	-1285.65479	715.53870	296.30878	-1196.23157	737.57336	316.68018	-1230.02930	684.52557	315.04309	-1369.68799	479.65359	256.98193	-1363.37061	459.15765	139.20932	-1360.05579	357.21371	276.49561	-1383.85754	321.77695	272.27945	-1416.29346	388.62729	271.23740	-1432.62927	347.57501	268.16217	-1512.42810	110.25294	225.75818	-1501.84766	136.01299	148.95912	-1467.64355	57.47054	179.16412	-1639.23181	112.98197	244.56223	-1665.90393	161.35492	181.33665	-1650.35364	134.50710	133.38135	-1011.29309	965.51642	96.93912	-1186.62708	939.71411	0.19225	-1051.62012	764.48969	-71.64458	-1045.45764	701.75360	-64.11691	-1126.10193	750.26550	-62.83877	-1108.89941	689.82532	-57.58395	-959.70618	451.34219	-5.19457	-988.30475	457.64169	97.35964	-878.31262	401.45969	-17.56039	-861.74353	356.17990	-16.16735	-932.20721	372.18167	-12.98073	-908.71484	331.96301	-11.66061	-787.15723	115.91094	38.26611	-809.66864	136.00793	114.02111	-703.95575	96.74832	84.19586	-909.29626	35.16117	119.68436	-933.27435	50.03798	72.72781	-882.86011	34.31878	6.73532
1902	7.60400	-1025.57898	957.28857	163.18903	-1209.08984	944.21448	240.23209	-1267.00842	771.45355	294.90662	-1292.09497	714.95465	296.59677	-1202.58777	736.90247	316.63281	-1236.38721	683.88226	314.95764	-1376.09680	478.84424	256.77939	-1369.90088	458.85153	138.87677	-1365.97559	356.60541	276.44186	-1387.85974	320.33542	270.95078	-1422.50952	387.64645	270.87180	-1438.45508	346.44351	267.89139	-1516.61963	108.48155	225.51566	-1506.06567	134.30296	148.64285	-1471.49915	56.24756	178.85046	-1643.83203	110.26053	243.70662	-1670.14087	158.86089	180.66594	-1654.32214	132.32591	132.84499	-1017.18579	964.60822	97.11736	-1192.58301	938.57623	0.18655	-1056.93054	763.62091	-71.25958	-1050.62769	700.90607	-63.71637	-1131.47888	749.22546	-62.68647	-1114.09216	688.85883	-57.42776	-963.89612	451.00662	-4.97932	-992.64526	456.94040	97.31274	-882.07428	401.82629	-17.39761	-865.05957	356.71671	-16.01197	-935.69720	372.07831	-12.84902	-911.84045	332.06683	-11.56141	-788.48114	116.78932	38.35830	-810.91779	136.99431	113.88490	-704.77167	98.67789	84.10634	-909.43042	35.11393	119.81119	-933.61743	49.60183	72.61601	-883.12427	34.33156	6.64848
1903	7.60800	-1031.68506	956.43561	163.37398	-1215.31116	943.49347	240.28465	-1273.57520	770.84912	295.29987	-1298.58508	714.28491	296.86249	-1209.00537	736.28790	316.65445	-1242.87744	683.16962	314.92490	-1382.56055	478.09052	256.49448	-1376.29895	458.50623	138.58044	-1371.86816	355.96780	276.34256	-1393.27942	319.23849	270.55090	-1428.48059	386.62137	270.52826	-1444.26733	345.19254	267.56909	-1520.21619	106.88795	225.29968	-1509.94727	132.74063	148.26636	-1474.41968	56.57290	178.42574	-1647.57849	107.57901	243.06894	-1673.94031	155.87814	179.99789	-1657.93799	129.69576	132.11987	-1023.31506	963.68042	97.43359	-1198.49658	937.46960	0.13716	-1062.45435	762.78241	-70.86965	-1055.89880	700.12244	-63.35752	-1136.82690	748.17291	-62.50037	-1119.35693	687.85504	-57.22889	-968.16571	450.66565	-4.80361	-997.35669	456.13062	97.52325	-886.23053	402.16089	-17.17687	-868.55322	357.28122	-15.87952	-939.35107	371.94928	-12.70524	-914.96863	332.18195	-11.50734	-789.62158	117.96673	38.14056	-812.14899	138.00293	113.77508	-705.70160	100.70045	83.99926	-909.56158	35.06669	119.95811	-933.87048	49.00940	72.55254	-883.39734	34.51487	6.40152
1904	7.61200	-1037.80701	955.66290	163.58366	-1221.64673	942.80127	240.32712	-1280.16675	770.08081	295.66788	-1305.22754	713.63135	297.23239	-1215.49573	735.54712	316.65741	-1249.39783	682.49994	314.97879	-1388.96191	477.27335	256.26443	-1382.88623	458.18533	138.28625	-1377.58557	355.25699	276.15536	-1398.47632	318.03534	270.18518	-1434.36414	385.44574	270.13885	-1449.79346	343.94385	267.21692	-1524.43713	105.13017	224.66985	-1513.83838	131.22855	147.73228	-1476.51404	56.97453	178.33826	-1650.87463	104.58642	242.51021	-1677.38428	152.47066	179.32333	-1661.23486	126.13825	131.46252	-1029.57886	962.71387	97.66746	-1204.51318	936.30457	0.10511	-1068.01086	761.99872	-70.44451	-1061.26733	699.35809	-62.97453	-1142.34973	747.16309	-62.33533	-1124.69739	686.88470	-57.04805	-972.59778	450.33188	-4.62264	-1001.77551	455.39172	97.59315	-889.96973	402.63223	-17.01995	-872.07214	357.90826	-15.78724	-942.96240	371.87607	-12.56947	-918.32104	332.32098	-11.38922	-790.83112	119.20985	37.87491	-813.52191	139.08371	113.62309	-706.75201	102.81779	83.87408	-909.75177	35.00113	120.06853	-934.18610	48.21870	72.44874	-883.65753	34.49049	6.31331
1905	7.61600	-1044.14001	954.87537	163.70535	-1227.88306	942.13318	240.40657	-1286.82361	769.39783	296.00818	-1311.79224	712.90094	297.57291	-1222.13074	734.95898	316.75522	-1255.82874	681.79608	315.11264	-1395.43726	476.56546	255.99341	-1389.39783	457.72458	138.06689	-1383.20654	354.53818	276.01974	-1403.58032	316.75348	269.71973	-1440.28381	384.16028	269.67459	-1455.29944	342.59799	266.81665	-1527.79785	103.66813	224.59146	-1517.54065	129.72470	147.29964	-1477.96228	57.27101	178.07123	-1653.47620	101.25072	241.98534	-1680.55554	148.70248	178.63298	-1664.22937	122.00865	130.96112	-1035.77075	961.84821	97.90604	-1210.64404	935.22937	0.09678	-1073.53345	761.24561	-70.03540	-1066.70337	698.58240	-62.52271	-1147.93640	746.18304	-62.12885	-1130.14099	685.93384	-56.83063	-977.02734	449.99234	-4.43597	-1006.50446	454.52478	97.79492	-894.07556	403.03427	-16.86703	-875.60199	358.54099	-15.69487	-946.79041	371.77383	-12.39221	-921.74133	332.51685	-11.28140	-792.19794	120.43360	37.59416	-814.88129	140.23987	113.48653	-707.92896	105.03168	83.73020	-909.92267	34.96153	120.16386	-934.53503	47.31889	72.41273	-883.91602	34.44581	6.23275
1906	7.62000	-1050.40942	954.09442	163.85306	-1234.21387	941.45581	240.54782	-1293.50854	768.72668	296.46094	-1318.55127	712.19708	298.02823	-1228.75757	734.27197	316.84225	-1262.40662	681.10742	315.17670	-1401.86841	475.80972	255.71774	-1395.98743	457.29373	137.84665	-1388.78394	353.89560	275.86746	-1408.54688	315.42007	269.25122	-1446.02466	382.88208	269.17477	-1460.52710	341.17926	266.41006	-1530.44922	101.86760	224.33635	-1520.48193	127.97510	146.89491	-1479.62183	57.36080	177.71335	-1655.98279	97.45552	241.16460	-1683.53625	144.63766	177.91762	-1667.10034	117.44183	130.56572	-1042.11377	961.04272	98.14529	-1216.78467	934.10284	0.05798	-1079.16882	760.47919	-69.54931	-1072.20227	697.86243	-62.16485	-1153.56104	745.16425	-61.89730	-1135.54956	684.96753	-56.66505	-981.52313	449.62744	-4.26714	-1011.29938	453.77734	98.01287	-898.27875	403.50818	-16.67890	-879.40814	359.20279	-15.58810	-950.61133	371.66415	-12.23377	-925.14270	332.64816	-11.19244	-793.56989	121.77793	37.35098	-816.45551	141.41515	113.31498	-709.23889	107.34392	83.56707	-910.10986	34.92656	120.23237	-935.02167	46.32117	72.36378	-884.20117	34.41688	6.15360
